<svg width="64" height="64" viewBox="0 0 64 64" fill="none" xmlns="http://www.w3.org/2000/svg">
<rect width="64" height="64" rx="4" fill="#FF525D"/>
<path d="M22.116 45V15.6H32.532C34.856 15.6 36.683 15.978 38.013 16.734C39.343 17.476 40.288 18.442 40.848 19.632C41.408 20.822 41.688 22.068 41.688 23.37C41.688 24.714 41.31 25.925 40.554 27.003C39.798 28.081 38.734 28.914 37.362 29.502C38.496 29.852 39.462 30.37 40.26 31.056C41.072 31.728 41.688 32.533 42.108 33.471C42.528 34.409 42.738 35.438 42.738 36.558C42.738 37.552 42.577 38.546 42.255 39.54C41.933 40.534 41.401 41.444 40.659 42.27C39.931 43.096 38.951 43.761 37.719 44.265C36.501 44.755 34.996 45 33.204 45H22.116ZM25.77 41.64H33.624C35.066 41.64 36.186 41.402 36.984 40.926C37.782 40.45 38.335 39.841 38.643 39.099C38.965 38.357 39.126 37.594 39.126 36.81C39.126 35.872 38.937 34.99 38.559 34.164C38.181 33.338 37.495 32.673 36.501 32.169C35.521 31.651 34.114 31.392 32.28 31.392H25.77V41.64ZM25.77 28.074H31.818C33.904 28.074 35.465 27.647 36.501 26.793C37.551 25.939 38.076 24.812 38.076 23.412C38.076 22.698 37.936 21.998 37.656 21.312C37.39 20.612 36.872 20.038 36.102 19.59C35.332 19.142 34.212 18.918 32.742 18.918H25.77V28.074Z" fill="white"/>
</svg>
